<svg width="1406" height="955" viewBox="0 0 960 600" id="svg" viewbox="0 0 1406 955">
			<g class="countries">
				<path d="M1042.0982464685712,481.5089807098539L1042.3463169344761,482.33716573887796L1039.6319975896622,496.4050518049603L1037.92257561744,501.8254844163555L1038.8270648425525,512.7257519301231L1032.7755878480884,518.7144047014428L1027.475208088877,520.367820154913L1026.593985079083,528.2597044020644L1020.2001082384926,531.9533571674566L1016.5734728431728,540.4273507466413L1012.1665219451802,542.1411975539384L1007.0446984705092,541.138991025692L1001.7358945542835,543.2361683633537L999.4837118516941,553.4120133038075L991.4286025955739,561.5569958627759L986.1627004591553,566.4633492652242L983.6314752138107,571.9658558457141L980.9705018745713,576.1621262282787L977.0627640139091,579.7784720724374L981.2114942252499,583.4496161080949L987.3627512826226,586.506887051943L982.6528823285014,592.1031455083134L979.3764887164458,596.1722057732227L977.9488644796457,601.0886088842863L978.5922646754657,605.6804063780282L926.7008914524176,615.7182232778748L892.5845743161682,621.4339361696946L893.6857254997833,615.1731165641493L897.044330644698,609.1395159638862L897.0724115595115,605.5618025089949L892.6643299114514,603.7105447899003L888.9150240128505,600.5895463650761L888.5658299926368,595.7391623118913L883.3276729142814,592.3110350351817L879.5046546556871,588.2365984837778L882.3218300208258,584.8203159611983L879.5156602956118,583.4403127271725L875.2602005314335,584.3376113039152L875.3854801155112,581.915516057165L880.9856858581849,573.8597555452995L873.5679308171771,572.5344261866408L879.7167581471062,569.367298710763L876.7178223777237,566.4481440804847L873.8068637386762,566.4630684878556L872.5300241236001,562.7993706064256L873.7709094572567,556.7182543180494L872.8847193119763,548.5361248354643L871.8218728608049,543.9616318500388L869.6450426835753,541.4441997901819L871.0285585162884,535.266229337864L877.440409415905,536.6927860391586L875.5159112272758,530.5821225576854L869.3309853011351,523.6586495630917L866.2596054006821,522.3115019023141L868.2559568234421,516.188416875121L862.3165223406053,516.0951764420254L861.6439296789825,521.176105788157L857.8964741977686,521.4517724324057L854.9500852465108,518.6817639283382L852.6452555036221,517.2511786388609L852.4260834183394,513.82101694502L853.7564943216616,508.06132117659695L850.707456729404,505.7756242084324L849.3824362083042,498.67518829804334L844.5641291057516,496.072240295884L841.0614686256168,492.6495226837629L837.6596339354102,496.99228267173163L834.3630846393022,496.23866076102433L832.4504514096238,490.57733884966933L837.8185811277783,484.09615134363474L831.688908991199,488.2781854377164L829.7215159904893,486.28778091097604L823.0097187648372,492.5422321777265L822.1675089417835,499.10786117811165L822.6528035609531,504.1244184857909L816.1319117052041,511.5599561107128L809.2914181804182,514.5421651274282L807.2609363567574,511.07922012637584L807.4204972138143,506.11336228446396L810.0511668236594,495.60709872595976L814.9547909602642,493.55592438085336L811.1988477223923,488.7074389926897L816.5193069854879,481.17149684000333L808.8692885281889,484.61025620340297L808.7856139948792,477.6350240301649L813.2422337802616,472.6034586647001L813.6680643546829,465.61881354132976L807.1759180576793,469.45472069048253L801.1825497970609,474.76559503374995L796.1722567113336,483.2706464495604L792.5908102768999,480.5321118901046L789.1274418517937,477.24432056286474L787.3763114094161,471.31157887501314L789.0690805781115,467.27669091674557L793.4546707962127,464.02013553296644L793.3345994171593,458.7307345300896L795.6928244438276,455.0152664568293L804.703436395856,452.5018773176271L809.8565231065763,453.63679381161603L811.7654236674705,457.8873864724154L814.9473687304013,454.49314719829454L821.9478585502167,449.8036335383794L824.9110151415399,447.0559305717727L831.9774148824181,444.21736833129614L836.983888980217,446.92604425466226L841.7767254058039,445.48949303784224L845.3455268998225,440.86006506380113L849.8597462702588,442.66974905619907L858.30265940013,439.83163114910775L868.2225008152642,434.5597242212096L873.929111495672,430.1650475120887L880.6400943014672,421.9969946171741L876.2275361502936,416.70127321575967L879.5672257330734,408.59376488636514L881.8426842805424,401.72762675831876L875.1869200253652,399.12801315576456L869.9206714410835,390.7437668762556L867.6690909797527,384.95158107739627L866.876977434807,379.37684112007975L862.6525707222289,373.87673555452614L859.9104862248553,367.8442091603563L852.6656790451666,363.01539258543147L848.0402745067441,359.6104872962358L852.4276263693814,352.8969642809708L855.3763609409939,343.8873838066379L856.3625890293079,332.688249940854L852.6576806380202,320.8589503374834L847.3401608140415,321.70769730558607L840.4860426066103,329.1531960360401L836.9070959981368,343.76216281894324L838.3866769237674,349.79603032437944L828.7334105882657,350.1615213031498L820.795784248869,353.8359015224479L815.5965156825636,358.71543247129273L813.8022825688117,364.61155762407475L813.9657325662447,373.0821963712645L816.4857215002664,381.68826391424756L807.8085635689839,388.3567248129828L806.3834131898739,396.8266046698916L802.1910875863616,410.3195460646565L798.7245093358972,411.1666186969448L792.877915714555,406.21799101653926L789.0200785276667,403.91973391250633L784.9649776580828,404.9168853048786L782.3497005089879,400.75940694701455L778.7707413046172,394.127686382487L778.5657026260659,390.4659594291707L771.157619911826,387.50399872192725L773.2800602280001,380.23939809089495L774.8138046139318,368.6891432268404L771.0430761987175,366.1809510081748L768.7986965668078,360.00508576192146L760.9072816084898,363.51259214868116L754.6076788376073,372.5395130564684L750.7456963550733,376.18368053741995L748.7079531382623,367.6100469476369L744.4266610240818,355.0100297400738L740.4486932709258,343.18033153547924L743.2223451344787,337.6292922082704L736.9693931521873,331.60659698534704L732.7795350984358,325.744098710408L724.4891841982022,322.6816771132282L721.1750087107716,319.4165952399286L719.4284858391513,311.32404860985207L715.0496496773051,309.93545653784145L712.9383723691261,306.27785775916965L712.8488769216663,295.4707504269942L717.221981136712,292.0095300316649L721.6659750826728,288.9436758428931L731.8437452654546,286.1907899831673L740.2777903164637,278.9857164447351L750.8701582445877,278.7159245414189L763.5135244878167,282.8242283598563L772.6197681603214,284.7401102640508L779.0443648953934,285.40949595998063L785.6266533483143,279.81307868938336L794.3957000510325,277.54324127033374L806.774360397568,267.76078073579L816.7584432335584,261.2636787826644L810.9447055104341,261.2995950338512L797.1794120880223,270.69694864284605L782.2627216764574,275.2671536986352L772.7104187481054,274.1108242957629L768.1928988938158,268.4291690081404L775.3853463804012,263.20545436154873L775.372473390165,252.3845651508142L774.6556474722403,244.62130462371675L766.7402403975649,238.07929175291363L755.1356128866545,237.73492394230502L746.8435574355336,248.02600467256482L747.2018246616232,240.87169978987254L743.4213319823109,236.64957520927692L752.7079295079826,231.224987701613L769.0467860523163,227.67561329246467L776.9326340401971,224.88005917725351L786.3651728474186,219.37700225381258L791.581566915736,221.4776001220942L789.9213523682007,229.85115739568013L776.2265528040256,235.24402671788587L787.1645568474936,237.35967669782934L795.0926551446648,237.93978559411352L798.1212470415401,244.4328877012685L794.7613993057871,257.5149080126239L797.0700133305404,261.0325860401315L801.6421804643852,260.62343850773397L803.2784360473304,263.6417893372068L810.1912764540306,257.9390757976322L814.2740864151832,251.21376388534748L817.9676310909296,247.7030888684471L821.317512673554,247.08850462917476L823.6298990397515,247.28180577784718L825.0765023906768,245.31824156697556L837.2016757587435,249.5761240086994L847.1130742871289,253.19903429397962L850.5745999332879,252.6859658815492L860.3507398971502,249.0942798236288L861.3387428134715,248.7479520772714L865.0383979023536,246.0940170803138L871.1444938392007,248.8713203188646L877.422338091513,251.85272226459736L880.8998751869921,251.7772140368654L880.8390265919141,249.56623763163583L881.71106224582,246.62004599535604L882.1054356532394,245.81995697173792L892.7990783780225,245.64898296862305L900.3024778074256,247.8444558175963L910.2284951941047,247.48893437519914L911.8410330326587,248.4212667752589L913.4140479023139,250.98950551351336L913.3762103012359,252.61623075680012L912.6086409214722,253.39956019247762L909.5492152840998,255.51052874809812L903.8860106148268,258.5778177219213L899.2372687567312,262.63807185136943L896.2257726292532,270.6093708251392L893.1746996001314,279.1000070620821L897.0577583949047,286.5072938209378L895.5658667062035,287.64243418666103L895.8767538792429,289.0207090256941L897.5314532733177,289.98606182500566L897.7736247166979,291.93009303363306L897.0446062646599,294.1007517407919L898.5038647378196,293.9647895719273L899.8414708723549,294.96463843972634L899.107439392933,295.7280358318669L899.8795013320821,297.1952108222607L899.151834548689,299.7642988752268L901.7199280813016,304.9519021199927L904.5841235088585,310.38245002640974L907.7325586910138,316.8797136803465L910.7402427770337,322.9644944658654L916.9190332504804,323.93756124763894L918.6801287442937,324.97143466797L923.4030071902083,331.5035385173567L928.2403779163212,333.64630079535283L931.2833380847451,339.58485778088533L935.2143488204965,344.62145027641526L938.1533813705994,347.657589842819L938.6179708409296,350.2051772345883L936.2637110802266,354.7468149476721L937.7595161633861,355.99695927834L940.2832995905837,353.33527367604313L949.6647505055126,361.49571375945015L964.6552351593393,375.66117008552544L978.6874187435303,390.325656652686L990.5500852776604,403.93538960357057L1001.6438788171922,417.81933151741794L1011.9926208464824,431.93496445608145L1022.0809107723451,446.9605456784292L1025.1497600207317,451.813505083745L1034.0704651693318,466.7792570164011ZM823.7835424191908,422.2107131836898L819.2289521419691,424.3836248207998L814.2208749424647,421.80748288481783L815.0222864669369,420.206225441655L821.7526267578494,417.9856012265153L824.14939513203,419.63161049482846ZM769.411350069949,499.17103243860197L770.0792135517833,504.66419933897777L768.601103294407,507.5501628668226L767.1743032343123,507.5941945565949L762.3334398850285,504.3820012074341L760.0936178455216,498.05872877566117L760.7049785319545,495.6909127684661L763.2496533370917,497.0477925757439L765.8282773533911,498.2988185291173L768.9785978397373,498.26479293621ZM811.5313682024731,412.17546505246366L808.9837611846702,414.04735158656996L807.4016450771815,413.14414435431866L807.2372415930297,410.9228123240533L810.7311443762918,407.3082554104586L812.0776810699517,408.82833810115744L812.0162917996266,411.86269564580493ZM788.9935553082928,533.7097767488756L792.2016681545522,531.668499741255L794.48530064808,534.3373105963788L795.1374991388396,538.0756657206712L791.5437906612219,540.3676793899341L787.4720547499485,540.1815325145488L787.9577395107619,536.4090351457795ZM775.2637591983005,552.16876885416L776.1886041753364,552.4809595800413L778.6160046354016,555.3168074486787L777.3975320272198,557.5040838998992L774.5192668192476,554.9155809645467L774.4938424590289,552.8125407770012ZM772.2914383267796,564.3565695235574L772.676245336867,560.5957809601273L775.1347546797799,558.3788985943556L778.5417308588625,558.7125296935865L778.2963915478391,561.3487351435815L776.5661407392519,564.4330607726038L774.1021150860118,567.2978932485628L772.6265839588884,565.5223921688257ZM781.3821093230351,521.8357934223976L784.0393332778527,524.9314203507306L787.5464924813937,530.9870239502968L785.2362873675795,535.3538939884259L782.7562409941563,539.195554031789L782.0547233580282,543.5879717816779L784.8043671660785,547.2778736881842L784.8443188914546,550.9636712977557L781.8243215985017,553.3231957600417L778.994527372766,550.1191552197038L779.0729193222085,546.4383276322249L775.6856474622467,544.1114423327646L776.0035950108204,540.5359132336846L778.3502447669671,538.0017012675388L777.3785440841341,534.956851249168L777.4203896340591,532.4397588562116L775.0985729239897,530.3622437962914L772.6651146521349,528.1097218652639L768.6080406897846,528.016644093781L764.2823086772527,526.4230608587224L761.3523247448201,524.2296490950733L760.6066166914757,520.1046691040058L761.7104735517838,516.503420001305L763.9784958065432,515.0504287315728L768.0934253781196,514.8807365067281L770.2741414007688,517.2758930515388L777.0508847598875,519.378222514955ZM794.1787369307177,580.235531724604L793.8171989885665,577.2121137767597L796.3076288255389,576.143516258991L800.5997342436767,577.6148945741743L799.761248128489,581.6874950324247L796.5413300022993,581.9132601979622ZM789.0270349258429,583.2487302130373L789.0825915984796,580.2445030275919L791.868864208418,580.9761782687428L793.6140573092589,583.4818626064975L792.5186157029067,584.2222206650454L789.1392315217494,584.2669677633537ZM712.6524162459434,287.52769540798556L716.124926843123,281.5748821415443L720.4992799701608,273.4001599200943L716.3249435653818,276.3592676027864L712.1369423345632,274.12946797525785L714.4923263816457,270.8763278637151L708.8644939009424,268.1088603729997L706.1008785463254,270.3517552858937L699.7124296399834,267.3737487096138L701.516162139512,260.3241193502343L697.10284352964,261.9564133781399L696.074494736334,256.8543966169897L694.0354318395931,250.69131758772562L696.5234275838174,241.89604100639028L699.715376769138,241.49597048796954L704.1380493883408,243.45170337492107L702.6767248039267,251.4700786403015L704.5870032012205,252.71628625680987L712.4397086963494,244.28537770582741L716.5765360296328,244.77158549725903L711.5899600165914,249.25906165431752L717.9969086106307,251.77816052135023L725.200977655722,251.6119475644418L738.0644651770923,252.9793468576677L738.7377369289426,255.89415088487348L734.4106531612262,259.0425787184936L736.9698473943608,261.93286397993205L730.9305999630388,267.2316392243929L723.576050429784,282.2890397606841L719.3572261545058,287.6123623605842L714.0625834472548,290.68210829182215L711.2917622591493,290.0843024916476ZM812.032446489427,443.001285877616L809.8255820788348,438.34992628100883L807.0944756456871,433.8776035733283L808.7094463201418,429.96483550297074L805.73597661087,429.2449683856971L804.4607830323134,425.23153628974364L808.9156709825884,424.2781197739312L813.5559975155312,428.945674545077L813.718508973626,433.60520183355237L819.3504147498106,431.2754695693137L826.7466614003257,430.0210796868299L825.1933257278054,435.3159571158696L830.4025741222069,437.2955155886309L825.1099445564893,439.4092727253813L821.0770904648004,445.1265639810691L815.8462752444093,451.64153600636143L813.8559509306356,449.7512612759479L815.2617561646085,445.8917550838204L812.775892459088,446.176925197629ZM768.5752961284229,494.369696477188L764.8586071212999,496.6593455977262L760.9097272725173,490.22740100255146L758.8190952757943,484.8278275612823L759.8022642374158,481.0581694860637L754.1076009769585,481.22910546545216L752.8568281936251,474.9344774370504L746.880464870709,469.6237690211122L745.1782196065509,465.5470540897089L744.1879715112395,456.68995932658805L750.9255601651915,453.9478999186478L744.5616854976654,446.49702419684303L739.7128876718971,443.3982835105712L736.1807314467519,434.4025304291654L730.7005109491165,433.11741417845246L732.6979062553415,426.99118593283293L740.806329014472,417.5254788651913L744.6929456751865,422.1851090729833L748.7151432280617,431.78641751783266L753.5479659723759,431.71547326258667L755.1050598843643,426.9076729865553L752.4863751194644,420.7928222502695L748.1811703188749,415.7270607364558L747.1349285151748,413.03149715876884L746.2367155253769,403.72985454167406L748.7341105304154,397.53485520806L753.3939949775395,400.95907811571846L761.7409424799029,410.4262416886264L758.0100380150866,401.4650175259461L754.9310651463963,395.0912020354956L754.8170423817085,391.88482411137807L765.348967891545,398.0198277964741L772.5264935464393,405.4126333597145L776.0432948402499,411.08791535605957L773.8795436810406,413.1476730762754L778.2090692119929,419.3321036956241L782.070609689993,425.3296241748058L782.9557545346196,422.8818902210704L794.0043084871537,425.60753347997183L795.7087307311625,429.86244950352136L790.8854230305598,434.87067132990126L784.2777607113743,432.395008358721L776.5871911850884,430.97792956255114L776.7123902382509,434.28892166885987L773.976529969431,438.1502171387798L766.851351711849,445.0143007614571L766.5527494299162,449.17555728273817L766.866290996824,452.5187086036615L770.1878046846451,458.29372860288663L775.3584306640862,463.541569051155L772.5896237221398,464.88997621788025L773.6270454141608,471.21803417397507L776.0230568559334,472.7362452856935L777.044308969354,476.52349517240356L779.5090321653204,474.78432595082126L785.1495228146655,476.16628059543L794.2265934536858,483.09750193185204L798.5318561251667,488.60917020519327L801.9153679169654,492.44435492468654L802.3038168191656,496.37355079707817L797.4424331983828,498.23077645495505L800.8422339719662,500.4607119604696L796.5146770629001,508.4882481061099L790.3088242012909,514.0857622501758L786.0114838176546,515.7389515307601L779.2226741760642,514.2564909245025L783.85660344486,510.2110568636781L784.8392929724236,504.3950432778692L779.0810394021127,509.50800155698215L771.7310365426699,509.6307731647772L771.7548231740597,499.36325898060096L774.5988992225178,494.2598834725364ZM795.3376685753695,528.9621317820626L791.4356664465635,525.571920597801L788.8865253623723,520.9612917846149L796.6579445179832,516.7165123016845L800.255288020563,517.1591833217122L806.7431400665668,513.55247025868L808.9416451889116,515.9293694077204L805.2736209860741,523.0021185247119L802.2925963008378,526.440441824443L798.8216589780802,528.6352289991365ZM822.1169672788183,591.452558532624L814.416627550112,591.0764425133187L807.1986063694898,590.0532873851614L805.720380482675,587.3504890294531L803.2203872679535,585.6723040405767L809.4806192013165,582.2952949246647L812.9945394418153,582.0853506497382L814.4153826531225,583.5833737432627L819.8436305027926,585.2958134818533L822.6123380805777,587.8516818356543ZM1022.7853326794814,550.5555319649498L1020.2508181205383,545.9706448045478L1030.431813714597,543.8588134173862L1035.6212621144477,536.8243512671684L1036.4039246067532,538.8781651646101L1033.6131866785454,543.5275779095791L1030.4540983930306,546.7756034787658L1028.6043193601301,550.3407003987867L1025.2225277561233,552.5535767897367L1022.3794039550985,553.3409071599085ZM779.519553420388,578.5954669732992L778.2569846878644,575.187762285811L777.359408663402,569.5072260903954L779.4860710625809,565.3811866366792L781.5619529326593,562.142943169013L783.0756666757192,565.001234292559L783.1031736501519,569.2830196898718L785.4986384803098,572.6640776834321L782.3557752931694,573.0873077392067L782.1876968050997,576.1355698239652ZM1041.1900877945736,498.8918240438047L1043.7089641222622,494.42267431094797L1044.4232669316355,487.4708234962574L1047.8390598802735,483.1117537365555L1050.2061499798474,485.283010060713L1050.8885792714148,495.9068035813821L1048.8324945047946,498.7576346785357L1048.1072466949356,504.9063490312757L1046.1794033620426,506.9327066796078L1047.071178317154,512.9343534697812L1043.5104671289985,516.9610412217721L1041.4096092510165,517.4158273498736L1040.7138421849893,510.9842970040849L1040.5976796445452,507.18708194924267L1039.2128047421327,501.9010555665657ZM834.6754897792739,582.0331946605511L834.7224923245959,578.1148196142585L832.0927915100702,572.3027034135297L833.2643387709621,568.7806568242239L835.039640258567,564.4467829901789L838.7181805186337,566.056921525825L847.5461154147401,568.5841176153872L854.8115394668764,568.5716274901816L858.3020839159057,566.7375663975824L865.7409077026466,571.6884935346167L862.8427364262755,574.8130806413639L860.9946953552152,582.9042006014175L857.0186107745085,583.2502744053957L850.0530805332548,584.196735345839L843.6906883805693,584.5148384504328L839.5228284576953,589.0267994052716ZM806.6721440831247,561.8701963032457L804.2674927632954,561.2645902449939L803.0309908065293,559.296987154613L806.2345939805489,555.991270485903L810.3842630265567,554.2901102467623L816.5557025418092,559.5981696817942L823.320449862996,562.1917257288518L825.5920742158285,565.2352642870765L823.2708752452352,567.0839743024093L817.13862732226,565.3816086114605L823.8767755216749,573.5973219863147L824.1220499779762,577.2751885058667L814.8711429094238,579.0879032076579L811.563861354991,578.7237462025696L810.8749559053591,571.9190371377988L812.9826274035289,565.5059770129202L811.1365019065751,561.9622149894569L806.1121989328192,569.7498175069109L802.2922358287042,570.1281578441159L801.7372295786242,567.7934245983447L804.6571666615931,564.6023374621091ZM824.0337259654664,543.3568699958796L824.910679974736,538.6499773757257L830.3279264236733,531.5205868563394L834.3829793520832,526.5550680286804L834.1173447697603,519.8831784845922L833.3425443536044,512.9100375650612L836.2974785666956,510.3549742347543L840.5572477642437,513.4704176343477L841.5382628953996,509.6117332175569L844.5805249120361,508.0768596053099L847.7700106746704,513.2903928261877L849.6970325856322,519.0581536999982L852.4804622726595,521.5431503723005L858.7156093789848,524.2767268069568L864.7672665719058,530.0542735108531L868.8741652730539,534.4231103474867L866.3762971236248,538.2727993008466L866.7671224932523,543.3010746660339L869.0828986014089,545.1210200436719L865.0298158478721,552.2740417882803L863.0933456513103,550.9628600664704L859.3126138385587,547.7033715235275L857.2097045958587,543.9276902073279L853.7478825240506,541.5041208569183L855.3207818277733,547.5628931670902L859.3191162642522,552.6258714529968L861.361095652383,556.3608143428645L859.1905791395479,559.4830654320574L852.6290856909708,555.4901221841794L855.0433749546879,559.1829114662187L855.4247560830538,564.848100272997L848.4027302710685,566.0650985898471L844.2862389916015,566.1357553260484L835.8399468730267,562.9458889271177L835.8656633305318,559.6604215831386L840.1708607249266,558.4624106005845L834.5643838663523,555.1155970351385L836.0768717420854,549.3661796108571L830.6091247281217,549.6939265604451L831.39593954673,545.9076469828211L836.8401910640493,538.6131149825401L833.039197533342,539.886001635167L827.054459595292,547.2663398170337L824.6094854206677,546.3292987397707ZM815.413762124189,529.2334922108261L813.307004791147,535.5958007274915L808.0638052736416,536.6161041152061L807.2138447585892,533.1315713885174L803.0534330364949,530.9305218673519L804.2725061705321,528.5434728445786L808.9992801303222,526.8482462414186L808.4983722333704,521.2546891196812L814.1233445227048,515.3830824631651L819.8608393616312,515.862854382156L821.5022686060828,518.2313204455571L820.4915628732982,522.174784553441L820.6095557083775,531.8696228135669L818.5113653457828,533.9138966915929ZM820.5508154417284,546.5667604582932L818.0713441831681,544.2083937850311L818.2287969839817,541.4553343343155L824.2366575317201,539.1179174348956L822.1460408470365,546.4314713074907ZM788.0739661746879,551.8724246294432L787.1910275862981,552.6162980939143L788.7306009925945,548.5058117295506L791.8115604997056,544.9095599736772L797.0592118332377,540.6280933388307L800.5866630412331,542.5480461192384L801.3944259490676,545.3661757745931L797.6746235204059,549.0369214669678L800.7141679807607,551.1743579219525L795.7575141059625,556.1677799773444L794.3679052136107,554.2783753613021L789.9508702626161,554.2995731324968ZM760.4253149001395,576.2756788052772L757.8508452008718,577.771331515242L756.308733266467,577.3612665598589L755.4339311122548,579.4122510258957L752.6601655801534,577.6535585150172L754.0393270571886,572.7365367337126L753.1027853549992,569.6759030538321L751.990116531389,566.7834445149351L754.0630099385834,561.11128935733L753.8982257791055,557.5685272269245L757.3351170884407,556.3929309675046L763.8034704094032,552.3754298937725L766.9239148891194,553.7142406046985L769.3092590406253,556.8769750709367L768.5507804267606,561.0526842256655L766.520297998873,563.6288677917181L763.9449182124794,564.743539161625L766.3165753507318,566.6229415606497L765.8435738919185,570.0792356629144L763.9464682417508,573.8732088375824ZM748.2221010066152,581.7553098817433L745.7264799962937,581.9999899305451L744.3402727830637,581.4532601171976L741.4626128611021,581.3650744747683L738.1476349842363,583.4130300965859L737.1449841262843,582.2650704413217L737.2758940858635,579.324261095102L734.1684454577302,583.2838248721434L732.1541166395965,583.929472016607L729.9272954119708,583.969915346861L726.6505753909835,583.1145387152717L726.4949182878264,581.9899281013048L722.9902820576964,582.3159637139206L720.8969173781984,581.1494860494619L718.7853536446866,579.8959882096492L716.0577493710945,578.6019183175454L713.8849160919633,577.0290990071585L712.1580026446819,574.2734420109547L712.5703258626054,571.8375747903871L716.1475538752351,568.3991374081567L719.6448686238771,567.078988811035L721.2481204838577,565.4214253048845L718.3551917656141,564.8000752544187L722.7712598699409,560.050560595708L725.6674426058114,558.2444647965799L730.2756010050718,551.7209078298782L733.8921661313848,551.3179029418484L735.4829262129371,549.959762877444L740.5653934944538,550.8160035971548L738.7682575703485,548.8878233917532L740.5053743664449,547.8041644331529L740.7117344704174,543.1659017269887L743.4162435065682,540.8828588311626L747.0874544140315,539.5587852951165L749.3207000061356,536.6135476808564L752.9851778454299,535.210680881415L753.5308978940232,533.3125256059432L750.1811668216483,532.203241167259L751.0003285415183,530.2533556146795L758.3896958361349,527.4967773140955L762.2509156504258,532.3341985880961L768.3844582358537,534.0824295790591L770.5483748262499,536.7309214868022L773.6153585881145,539.2967377111271L771.501708259615,542.9836041126679L767.1630174831765,542.6883070293986L764.4910321324904,548.7267086409618L763.1610562250767,548.6557801957014L760.7733448397762,542.6666953872934L760.1496406732676,548.9161526145731L761.7486845068388,552.0167153682966L758.5733729813843,554.2722692580262L754.8287488339432,554.5104355047595L752.8507793190223,556.9601526757015L753.0208955878089,561.2431455042797L751.2108212524108,565.5203564780886L747.7211382792484,563.0989841748831L747.1092548339955,561.6439878972616L743.4817998098284,563.4531391635412L745.9078945743679,566.0347199521997L750.7908215147588,568.162654520932L751.263796845885,572.2048785890935L750.184438686869,575.8578772154956L749.8426474104118,579.0554772651859ZM774.8737479564708,449.31143292438605L777.890315210614,447.6702922533963L781.7052204479139,448.6371900346019L780.8797130985037,453.0212322473029L777.6507438412182,457.13545803054893L774.2690577899248,457.2123896075138L772.8001129560807,453.9005984947427L773.9625732896707,450.35833997054004ZM826.3324526427757,495.6064866666932L829.8162605096055,494.49195123596286L831.4028136637379,499.45843737198544L833.9599660664182,500.4183496136967L834.45879707098,506.36017463653064L830.5939843001565,506.54497832850234L826.4213233273281,508.02405798723515L825.6233167106451,503.88341831848464L825.2207509080133,501.4153702061645L825.5673978980084,499.59319579745846ZM768.4013467124664,279.6603252123811L766.040781339164,280.10353176630537L758.2643471310245,276.29722700349686L752.6072177629319,271.2070691069679L752.6257034717752,269.44148666394466L755.8293990518392,269.73139488652987L763.4397818472598,274.1529685042083ZM770.3119207939765,251.77440067390043L768.7741548559707,246.61057801566983L764.1411837421234,244.5446288777614L757.785581002664,243.72854684920182L761.808559293675,240.36018021208127L764.381782591392,240.04923086008324L772.1738186465267,245.7830802561599L773.2602858265134,249.25475530726112Z" class="svg-path" fill="transparent" stroke="hotpink" strokewidth="1.5"></path>
			</g>
		</svg>