<svg width="1406" height="955" viewBox="0 0 960 600" id="svg" viewbox="0 0 1406 955">
			<g class="countries">
				<path d="M999.4761450535644,832.3446863423223L978.4361641601065,833.5352884543661L978.555425952713,839.4090490712792L978.4106616178304,842.7812745655406L974.6092906720799,840.8083843286456L971.5279911806865,836.3432007173692L971.8513838810779,833.6595876746446L972.6461804349137,830.6014453496879L975.1939581331457,826.5470575063382L976.251753278775,821.038558367994L980.7897429840052,814.1700463211313L985.0251860445803,808.5180568141809L993.688601281981,800.2246831150671L992.6246834091046,804.7356272346202L987.7236522545547,812.7471148058463L985.1555085124584,819.8584288915154L989.4634113186029,822.3988710124515L995.8341843002527,823.5877639258936L1000.1063395595665,828.2021729169028ZM1252.6753532024927,706.5175930383696L1251.2140913325634,711.9670181313886L1248.0831476861144,716.0149465684567L1248.2596111864477,720.6420934932188L1241.6153922901003,723.5182313537553L1237.7123270000593,731.5485682667993L1231.6533011442584,739.9771470890497L1235.5832675643096,743.140212950996L1234.587080227529,744.9020816540426L1226.9028070780905,747.8342587379275L1219.3901479744632,744.3013681090904L1209.5295055051445,751.9727243753559L1206.6672795308414,752.2270877223397L1205.4954098015683,755.7908288814062L1198.8298790956896,754.4822293696616L1190.436997860889,754.9272429704552L1183.2245673264954,756.8193794055906L1177.1616424803105,761.3022892631739L1168.2127129749863,762.0514407658538L1158.0686424460998,771.6809564041938L1157.6521446185666,773.8611318303465L1151.1849997166019,777.4616198769354L1142.4301808702066,777.7978635899541L1136.4183418694806,781.1656837418604L1129.4723955334225,779.0860398310615L1122.7232260748501,782.3480231644685L1116.3182699183922,787.6184842647099L1111.9829175546295,785.22245492195L1104.5096066720769,786.7092456693847L1096.0213314331502,788.4918632032977L1087.0105236397394,793.2014922542492L1084.446081258019,791.5217567502372L1075.738154214202,796.0533242550719L1073.6054479837285,799.8238101438706L1069.5461782220762,798.819363728676L1068.8027084310488,802.0771404970669L1065.8800153811485,803.6812687024974L1063.472189293286,801.6515277774056L1058.8902759233806,803.6996598057792L1047.1795822758563,804.6926207877567L1039.2882508767532,803.4278173179971L1035.233050009213,805.2651770221427L1029.32789033188,804.7026129203941L1024.7121591054013,801.1347897094851L1015.8602087764087,803.5906207501494L1013.1563035759841,806.1241102352444L1014.2578241864837,809.5765913015266L1007.8469865319862,810.6547422079545L1002.9676253270666,813.584008056074L1003.4941407302597,827.0373861336807L1002.530447785823,832.4845112110215L1002.1953917229364,827.3800983477599L999.6188691251534,825.0092877041532L995.8387612719719,820.4131241353771L987.312469936193,820.2549182110206L986.9656432526192,818.1689327543108L989.2261633442231,811.8207981090986L994.56215325933,805.0322957457311L998.3134262130241,797.9539367693025L1003.2858167204516,795.3342677915898L1008.5219757700879,795.8740096386933L1013.4767231484916,792.0850980875173L1027.2027647395923,788.0055930282066L1035.4900264720193,788.2767575123278L1043.3714078795392,792.4424058602369L1043.199611605584,783.3128008933745L1051.7885573557528,786.4775877362664L1065.5117503369406,783.9443184683764L1064.8073385837315,791.1915124926657L1082.2171829209647,788.5518481196963L1082.8255435064743,783.8402344162128L1072.5379124759934,785.5624981790725L1072.2650368423479,781.7641224466603L1083.9451530563215,779.4070364152876L1098.577835930051,775.4936750501925L1104.797645159886,775.9356513539612L1111.1379406476738,771.0562802701085L1118.9176534878497,766.8137577237953L1120.2763711084401,768.9273916792934L1133.4622081702887,766.5974627273556L1146.7613605791732,764.6944053004103L1158.1772638934385,761.1335920138525L1167.2987594878605,753.9498923573751L1173.6530604765412,752.1798285183623L1181.01748257288,746.5233734542408L1190.7455029022847,744.5162884477285L1203.176828966793,737.1216519273987L1216.5138372733109,729.739771258176L1230.3348468267873,721.4213690898698L1238.8543972737311,713.642490889205L1245.2611258500046,706.1980405261418L1248.742392213612,707.5115384567841Z" class="svg-path" fill="transparent" stroke="hotpink" strokewidth="1.5"></path>
			</g>
		</svg>