<svg width="1406" height="955" viewBox="0 0 960 600" id="svg" viewbox="0 0 1406 955">
			<g class="countries">
				<path d="M293.4924338011127,250.3280227692628L288.2880276515298,252.8974520780248L283.91489142076813,249.11221958126748L283.43605836084487,244.7043398216707L286.7471411456223,237.90916676555014L289.32062456887934,235.09036721154024L292.282537552908,235.7443061754961L292.7951240929613,239.98078856821982L294.720356009769,243.87538076898537ZM69.63073370502343,295.02361005718444L66.35460056373358,293.44622385127957L66.59154572133673,289.91930759395166L54.94494034541344,287.9172783027742L57.09876646598923,278.85914837757014L56.958863624163314,276.1758160841565L47.9957545262198,267.84844785204416L54.00710618083656,260.83145311649196L52.23788945909553,257.2463758296851L46.29960999962282,254.12037376563023L47.282708046144876,250.45899316504247L44.45671522484918,245.48766458663252L44.583824184038804,243.59504404884927L49.514429178932005,244.4501388355196L54.35765079241958,242.37220746834453L59.441715408947175,237.18803419605894L65.97380823257072,236.40928340701836L72.78723204008315,241.30850206430372L76.26130217873492,240.947365445711L79.71074415818634,236.05482700657987L83.34230710616623,230.35061726590106L89.91053636181277,226.59648553120206L91.96163803796162,223.8306212022153L98.96350835764656,224.43037345712995L104.22136024938379,223.22692604578515L106.45943829316354,217.87838749757196L112.48262345035403,208.0418372682969L114.41375472364484,201.00290620302053L117.61649753378254,196.14850093448018L125.26855993323204,190.08023651942148L127.85668020921844,183.34726862865625L131.2252091883912,181.9299262870847L129.7226606696919,173.86572624919341L130.57252546086966,163.5829677535869L133.50258269630933,154.579699301679L132.96239750917937,146.61412919497394L129.8836838467107,140.71093190276446L128.51062920294578,135.3767153119819L125.2149411588565,135.6013938734472L121.35317654112202,136.63962904648525L116.64461046145482,131.700990867818L118.35387397685417,128.5429348522374L121.90327454137037,122.39216180416764L118.78345989782258,114.65081734240238L117.36119397419543,103.7748101234368L112.06614464184418,97.60809508011442L110.12933784704398,92.15647252910992L110.3789819174741,81.864626948651L112.5965606391776,76.41740096268018L108.92040192056209,75.0631404961527L100.65876558774448,80.43028266872233L96.57537945292711,85.48073343943327L99.65693079470975,91.43270749278577L97.03408554146802,97.70740751603626L97.65887671403868,101.71248506508232L93.52539787594071,102.73518430627593L84.23626215181048,96.65213371018069L76.97367047099044,92.77985920710432L81.5903376525365,85.04564313000708L75.67356466451963,75.04864168751266L71.05271715937181,75.0672065846872L59.731891048226316,68.50106903183513L56.14529547592974,64.8880263310985L50.01204737939406,65.0672129731592L47.59954091720715,68.9815900191013L41.80852147501798,63.814910615750534L39.150614502695475,55.59915601799287L38.02364271338149,46.58453349307018L40.15028077028467,35.85989712159608L43.850771897712434,28.772671328459865L55.67528297799322,22.75272044616787L60.78525613610441,19.444067798053766L68.25849927034074,15.953490252377264L80.48668382600147,12.296852563852667L84.01175843298586,-2.9181280343359504L93.34658602047887,-13.698906197162273L106.34147490267173,-18.04546726263561L106.08233699948914,-32.67670362758099L99.80582789928656,-41.044802768652346L94.01872332078995,-57.724395651221414L108.61797711805366,-53.049207224754866L114.37143972729268,-49.06206568377337L131.27842113284817,-45.53801348543374L145.53105508320402,-37.422182092000014L141.81940882272625,-25.423502862850967L146.02927340251586,-16.290537499184666L158.1272340493963,-17.247141320763262L174.21574226278085,-12.95962450483961L173.44946499153968,-7.931688710711796L180.16434590460938,-6.486273724281773L171.20573261508514,-1.839215144067623L177.63117989236866,3.52400043614432L179.54378874333713,19.19311046472626L186.23588905799875,19.574200596665094L183.6575548651731,27.20612190007421L178.91964083632217,30.34319839161003L185.35923334296956,38.575882398579836L188.55937820495205,49.56628355714736L193.06521563323452,58.635646321623994L192.2724183847049,70.94794629865521L194.89626047591298,78.26760510608875L194.37453235982616,87.45908686617025L191.39041191162494,81.65147679914543L186.89319356421618,81.8516106147764L182.35775141879697,73.4520018664482L175.68143267567075,75.85274924911295L177.1096300851426,83.5937950697986L180.7282754120148,94.44130921521116L185.13556609802947,101.14959209209684L182.94031820632176,108.23283950955988L185.7282610033194,113.42697266239662L193.19761237138835,112.1367643378461L197.01547585178713,107.19022575926726L201.1438956170466,108.68205972251462L206.2182466433531,104.19866459702422L203.32618750050335,93.29212920082597L209.74518468000832,88.12844876370929L212.21026115967356,83.39012550175221L217.66440400299655,84.49899393169608L215.56846907752833,96.18230467153131L218.8443549618766,101.8790180395743L219.74684298480014,110.88381295343396L223.9693599387155,117.42652102431754L232.62633322334096,112.37969414129344L242.3221573046158,114.08508254800245L252.38865451383526,114.21060285285506L261.45226988851937,113.53911147294247L267.41262803061807,117.28199019149639L266.8774669320506,122.81996726903759L272.04493577710485,124.12185581206774L277.1749824686606,121.59357479118898L282.69976431812273,127.1593892414798L287.4421283480952,133.01500471482382L285.58412757826505,136.982546594538L289.78970565602924,147.44351549886215L295.0813625454365,159.1713097536781L298.4713222982218,170.88881902806838L297.87290537000365,183.43970337008727L296.55837703350767,195.50221978400015L292.1578625125137,202.13186038093357L292.0541955537568,207.6083175510209L288.57888988732054,207.98832404471642L289.10977934801053,213.26753090034072L285.74138431332915,222.92010158013602L282.163526036651,229.06333231368254L286.4160034367484,235.7528833138052L284.4008071467967,238.71891447525147L279.20611167617665,236.8370174684242L278.2054150212141,233.85393398321654L270.90691418831904,239.17074552111518L269.8691324790273,242.24403729030882L264.4256377842698,246.19665093795683L260.18060383269153,246.93057083958402L257.7659246094982,243.55683435721676L253.11190173227163,247.48829069693667L249.24190063534502,248.2350805043413L248.8312167185698,254.78450516735433L245.68897521473474,260.0022349807477L242.68807958563207,263.8554962842561L241.9718706092438,267.4922421493916L240.8261685293749,270.4961591001219L247.18769766645875,274.4223134008142L245.04743299454282,276.9051581425713L243.58823668075001,276.2967705254323L241.34266206481675,274.7922047744079L240.1115518388881,279.3549959253311L237.59193598578378,280.6640168317589L232.89037722281586,282.7028807047212L229.73079504058995,278.06993083327814L226.36529823608424,280.3416517649247L220.86942253734378,277.76321533160484L217.86550854382358,283.4657178607247L212.2451256427728,278.2020838408308L211.14577759498854,270.56532410489535L206.83796921545166,267.2057867834967L202.5216784960773,264.41790861820135L199.79121189022368,265.6122147216529L195.46761868551545,264.9273617556271L194.0511181228918,268.031450473817L189.6213079565233,272.5668421838305L188.43998234733692,269.48823428179594L183.49546398035045,269.38166284805015L183.52077456846064,274.3786814629482L179.51237148541475,277.3345564265661L179.25743979854735,285.0454030920142L180.19074514193903,291.86154363905575L178.161218888667,296.07055496264377L175.39625448511003,297.0320213016671L173.59899502881706,299.16074478420137L170.2104434719064,301.58923200523907L169.7586931734727,304.8915878267068L171.23665206209307,310.5656231532154L167.0856098586073,308.0252794242726L166.2116276410518,311.4784889608592L162.11780896638822,316.15144685352107L157.34699673850275,320.26002111523474L152.68904366131414,322.02949799355406L149.26945071083367,324.67553801467693L146.01311828808116,324.3819337312343L143.54666068688744,326.28791015271946L137.35470077616105,328.2003240318105L133.48699833018077,330.3952578204621L133.2891284338616,332.99141575328184L125.83376879007892,336.0977224189986L119.84809438957484,337.9500285973264L113.9193068707707,335.1239735625497L116.63278060999426,332.6775286382077L114.32866261932872,330.7791259875145L110.57038014857426,330.6996737056818L106.97459302424443,327.4634501735664L98.24809668786975,327.7237029891222L91.71941366158012,332.64167538015107L87.28774691925366,331.1531774395693L82.95766560827246,332.45059086477056L81.08158922118923,332.1482458009655L77.91591833723794,330.71916856805876L76.18429413133344,329.28713905324315L73.4115356935871,330.8032944173145L73.06259840174641,332.39443805793877L67.87664977672932,330.13124067308183L67.49992748622685,328.25398828425296L65.98322998016022,327.9943377182724L66.11904459704238,322.8924315551953L66.98605865392585,319.5020538155731L70.37939586311518,316.0027400768269L68.0971115318863,312.3126200517288L70.69705605773538,307.0754904321847L69.53004582417623,304.3620438622364L70.53935487955209,296.3554705260253Z" class="svg-path" fill="transparent" stroke="hotpink" strokewidth="1.5"></path>
			</g>
		</svg>