<svg width="1406" height="955" viewBox="0 0 960 600" id="svg" viewbox="0 0 1406 955">
			<g class="countries">
				<path d="M497.42031384474694,150.6546556315924L491.5969805262599,150.210888676999L489.5687137601932,147.57553263525745L485.0408241918962,148.8655050389774L479.000997867073,148.50490588972917L475.57319605975067,146.96518757429817L467.96958133299944,147.80076459429887L467.91475469373074,144.44316960186018L469.5380468151657,143.1143036159885L467.95404938996063,140.8280367734264L467.5146955785354,135.45959235071518L465.60148129546167,132.218128516219L464.9331324334395,126.37984028184565L461.2884016986495,126.56978904128073L456.64460569453524,125.93920273706414L453.0911207071254,128.68370789013795L447.3166701289597,131.3812668910798L443.0194148023077,127.42846119274537L442.39181679850645,124.4751822455014L435.11678824181394,123.56471219098813L433.3146391817439,122.50837885764378L436.30464892401307,120.78985849447258L437.47011164122193,117.43476868232892L437.06201676578706,111.59014534419697L439.67804035448336,105.1484921748966L437.06025722180397,103.15819932002768L441.4035472292326,100.43380860436741L441.5099966422136,98.11165010535092L447.59121142473685,91.28623022021043L445.49092409012695,89.04640385678755L448.0099059884019,82.70100018833227L455.4283906240248,86.38311144660537L461.51035736492804,92.84109830985722L467.7082688902658,83.44830273124563L471.82697818897253,81.27815918184518L476.48095914680925,83.86042983653186L479.45803761419756,83.37396439687308L486.358691604304,87.5953150645513L497.98302391150276,91.45049329546436L496.151506944907,95.43749087699064L499.3902246293786,98.87165262346258L508.3524250022348,104.63356586080647L512.2336296936362,105.08871311947354L513.842109683716,107.46629823253693L512.0619878934097,112.78362418111004L509.3319449244025,112.88156091736448L512.5001936113817,119.28046906248397L516.9634547564563,119.70953172939443L523.0471205761942,121.96097354328526L519.578888061925,125.73585738275722L519.5742107071085,130.26149710941888L515.434038516768,128.74278894206105L510.5535649979714,133.76135876651097L507.12153418093317,132.14026651750424L506.5279005272406,139.16120683359827L508.0849861473489,143.43846064624847L501.5344318135874,148.88785043403954Z" class="svg-path" fill="transparent" stroke="hotpink" strokewidth="1.5"></path>
			</g>
		</svg>