<svg width="1022" height="739" viewBox="0 0 960 600" id="svg" viewbox="0 0 1022 739">
			<g class="countries">
				<path d="M515.5238451488434,172.1907671665595L518.9803380614193,165.9430122217706L523.0218459060093,165.885043445181L523.7799088299387,162.0089044396008L527.3169681752702,160.30398144764433L535.9614149357706,158.73374745032234L545.8322403086177,162.62930043691313L545.3932978684603,166.9701249259983L541.1071378282492,169.47451515360518L534.7881054868408,172.68666881914257L535.948740621112,174.14075349176346L540.0693737419175,171.57685263574763L545.0609897376606,173.07864982002715L546.2060465737729,169.2888736458412L548.7510341739295,171.9163032806953L549.7906031010149,177.5858183463082L551.5496161152262,172.8229626511933L555.4763919117349,166.1086947890576L559.9713974803449,165.40150272744773L563.0325368099908,168.3621471358546L561.6468322951316,177.42783772336963L562.037943524594,179.82548342520442L558.4253882541705,183.86891474070944L561.8891600014896,182.32554863639157L563.6866198130417,189.42814546568562L565.3356086066406,195.5612465451623L570.389192063554,204.85557677860092L575.4792814060756,209.0489645922781L572.7455118625141,210.9103304144676L570.9472141597186,215.23850704985944L576.8602841512601,217.73241158781008L580.9944592105135,224.50962273794266L579.1678167582447,226.58870100839286L585.6194167131417,232.13211032920594L580.9815247275294,235.235125984077L585.3305215108187,237.3710904333687L586.0759537244338,240.73574380186608L583.313459040813,243.5616277833244L579.9220176952293,245.118355314893L585.651951584773,249.4512944587035L587.4108365344587,253.2125212064995L580.8067077943011,251.99317179623483L580.4941240449139,254.83197495839755L584.7919037409807,255.31896316964475L590.6198693320594,258.84785479760285L594.7647963567554,265.1194906403788L590.6279642032662,269.00900001705253L586.9780769977212,266.6372035077956L581.6586970126735,263.3074029841461L584.9603989821937,268.5567938452284L583.3660570643934,274.3415397242231L591.0781618193962,271.691322265947L595.2605330593369,270.35276166473244L590.5759228787546,281.01526349982015L584.9144822389193,290.94293419227347L576.6296577696114,297.0238508031228L573.0189315563522,298.1212031098694L570.5847499008544,302.5524548511318L568.372763899432,312.9190493183666L562.2079739821152,320.8932712461477L559.8491659355954,321.89497679004523L555.425723403548,324.91985145346945L550.500467589817,327.9257073756246L548.147682096318,334.0437068498536L549.0863491013788,340.2966417770579L547.804920016034,346.3777393906372L542.1739680435176,354.28662682381764L544.6618402497231,361.16164412304124L543.700961376158,368.77212541012557L542.4606425762199,377.7032106179906L536.2394807939774,378.79509318106363L529.16969466592,372.0230188359836L520.3540925358477,372.44737379939437L516.0106308140734,367.53954263211386L513.1544973392378,358.8372679616307L506.01622750076484,347.6276766088214L504.15876376096367,341.7516491306862L503.9678208144859,333.63733956111406L499.0744597811066,325.1617296251162L500.6862638112729,318.5680818537237L498.56358536655233,315.2056440602195L502.38601598156646,304.7866701727341L507.4890463559413,301.66611105587754L508.83257026125716,297.76468838352866L509.57969666345406,290.73872727719254L505.9031006744632,293.9529284129633L504.1475428494011,295.2107041364847L501.2152751017041,296.40173644220255L497.48348452696297,293.24267307642833L497.67379676215705,287.0196196192008L499.1882537979976,282.1865428297168L501.8793973721847,282.33268827809104L507.98520798933384,284.8218846280232L502.9943733158577,278.9305102057374L500.63045156636935,275.6870755134177L497.6267124365008,276.81416671495606L495.4158056339861,274.3315913810571L499.1924008314181,266.02292671391103L497.7710000572752,262.60792456793047L496.2219221962954,256.00100440062363L494.1300965552369,245.94389929610338L491.5299176887594,242.10861722658518L492.0247602717814,238.3011386707397L486.84914613170747,231.93129677044044L482.3190658776229,230.38333290405862L476.4543305485288,229.37524393243842L470.98845342423124,228.57598075503893L469.37017643669117,225.09657418275253L467.6126914870572,218.30313056960702L473.76008960515566,217.10050499690973L477.8825794069852,217.74461828483652L470.24193220842227,212.9495829471851L467.40584961733543,207.77389604791378L468.8756971016559,204.51349106847846L477.08397175591085,202.50290855244506L484.5726977457803,199.8384951028653L486.0574142806223,196.68703182079497L482.6140513488021,192.2139788767725L484.9849779506264,188.9638198850305L491.7506946608348,183.73223769472622L494.01165695907287,183.14416538365572L494.25757434418165,178.7890282339299L497.86168787106743,176.98528564542045L502.12915345991183,175.99779488957142L506.1302512526968,176.16960205465827L507.4036669187952,179.35705414174404L511.0164461097746,174.06348559737674L514.1733625215421,177.6423877389755L516.079476390233,178.23925139795787L519.1677514861983,181.11653350976061L515.5749858059758,176.1870964540647Z" class="svg-path" fill="transparent" stroke="hotpink" strokewidth="1.5"></path>
			</g>
		</svg>