
			<svg
				xmlns="http://www.w3.org/2000/svg"
				width="1406"
				height="955"
				viewBox="0 0 1406 955"
			>
				<g class="countries">
					<path
						d="M764.6449344165181,474.60055797096703L762.5804201747935,474.1029676472942L763.4020587189403,471.14257796543717L765.5102277906751,466.09837096282547L768.925914924778,462.85834660316607L770.9443656685916,463.93244508297965L771.7605253247243,467.02719412309114L771.2420695848813,469.59899318827564L768.8560446571624,472.46707576236753L768.7981169300823,474.0581359117727ZM765.3356260451712,462.5199751396601L765.3143761045084,458.5985501197107L766.8962135984389,457.0896918928846L772.7678617980465,459.63600893986575L766.6765612459163,463.33208197640874L765.7013301159059,463.214400904711ZM735.013411535587,432.6186996238765L731.7087093144725,432.12306698145903L727.0757518372728,429.3260492298615L728.0844276173921,425.4035591086156L733.1698654073311,425.61784107869977L735.5632655472849,424.54361672842595L737.9237833805676,428.2352905144568L736.8041989610301,431.7450517560136ZM722.8641435640862,428.3957380193087L719.3349656759422,427.31562532833044L720.6809991144797,425.0530286124868L722.9257116226003,425.3327414605058L725.6137584066296,427.277281084308L725.3510755093178,429.0044269746832ZM734.7575920324991,417.86428148130295L733.1693101762814,419.878035621515L731.3367437651406,420.28107907869423L729.2185875846035,418.23300434236614L729.0595153790223,416.79475201411265L731.3865071191834,416.8331173538869L734.5029783024887,417.5588314700774ZM777.6535288134556,512.1659295979507L776.9171866128784,510.4085383983887L776.9433090890051,509.10256716467325L778.367940906054,509.05887692913785L777.1778431761182,508.4812553474569L776.2804784447503,507.6458343680947L777.5534631394166,506.4255432895646L778.2991766518783,506.7841608777836L778.911431629734,507.9654012097041L779.3349477243142,508.78185677590443L780.1741761610263,508.96844201901644L780.9353564108019,510.10656823138584L779.6156064306302,510.9512914973924L777.9765108942249,510.27153762538416ZM898.9198319373929,594.9149810672739L896.4678000060387,600.4417267942284L894.1802910666407,603.8384257716934L892.2816785320097,602.1259047705478L892.5230883110667,597.3284452276038L894.7373742843952,594.6351368991274L896.1750004222638,593.612463018184L897.4308803332832,594.5337611242766ZM813.9695599333407,504.1660570021499L809.2169800921712,500.9656014237431L806.884762850141,501.4453469191654L803.84933360572,498.7059957517819L800.0832571357963,494.9635678429031L798.3458519669364,491.0767715261246L796.0588633554198,489.44412647914777L794.7627644667756,487.3950564314085L796.535854743855,486.0528399679284L798.3908078730304,486.4092851170859L801.8998483442534,490.1543299726307L805.1159562255118,493.63638798441815L810.6088697672392,497.2066051894106L815.8741437508372,498.93557697629416L821.0164968633276,500.9819136536661L825.3270730610508,500.4423670106002L829.3968035505409,496.83454478535737L829.9582678531592,497.8487022083152L829.6141318886496,503.5459118813875L827.268455038195,504.03729895962596L825.8788878687858,507.0678663791872L823.0448433496227,507.28092772889363L821.9151473584159,505.65652744389297L819.0846870631793,505.72933999122154L814.4966558425971,502.82612103148296ZM731.8836176228751,306.92589036015613L730.646061476687,300.95640171992636L730.8463416068132,294.94274793982476L729.3393883070131,288.623408350399L725.1158911334238,277.31719804957277L731.3217097848596,279.37946549508274L734.1222753806867,270.1222269776179L729.9028943307891,263.31284333840205L730.0949095512635,258.64675151369505L733.5010023544372,262.76787097159576L736.6333673136957,257.70649814443L737.2374886299883,263.3643139980254L736.5031561047019,269.72898555508857L736.6945774005336,276.74571091625893L735.6094767248436,281.55448436006685L735.0317519889235,289.97059249695724L737.1693600951611,296.2399582628319L736.401243767228,304.53278679546963L733.0436785575785,307.2787901784628L734.3775395810089,310.1592068637623L732.7013750186857,310.9858504718601ZM663.4712937894418,415.88910647164806L657.2343735958079,415.670694491352L649.7618157400423,415.1530058655309L647.671241520951,412.5092629786461L645.6852649193793,412.504011849986L648.6931815663633,415.08848749387636L644.1110467219812,418.4333270091547L637.6022686074053,418.0307548985061L637.3620748699893,414.78213220617647L639.5863740657084,411.8258671139182L635.8484252541326,408.06945767602826L635.7532661734451,406.6682245067866L637.3867854277065,405.218321445686L640.0481385947569,405.3697522883681L643.2862030411221,404.52436138107527L645.2468705788564,405.890408719226L647.5207378646398,405.08296921709393L649.0084585333207,402.97095843596514L651.1605205483081,403.6024178987128L652.0561562863816,405.4866937179685L653.3269475111043,402.8943158175139L650.9621249019962,401.53781331143216L650.5654709262773,398.89724511194754L651.4948554540922,395.155401662268L654.1749640883369,393.71407648253097L650.8077237170522,392.6347216342954L646.9499368405918,389.8836758225773L645.144647023254,389.4026163091884L643.5616059345961,387.771581671656L643.1740324670704,386.21319331076853L647.7535666860733,384.44018745958357L651.4120688132003,376.96946287244646L653.0358667195599,375.1267027246029L654.4825891215833,369.7167406722841L656.2204253299986,364.8034435274938L655.9769289998487,362.0608342325553L661.2239396873703,363.63029566042667L665.9617648719578,356.518507717394L667.9069115296804,357.87490646529716L669.503902114471,354.63392081010477L673.2902650316418,353.8607082544651L672.818495946967,350.08921154026655L674.1572883062681,343.6365341076711L673.2323136743603,341.43592985251485L669.5761258015235,341.4943134128497L666.8992892806921,333.45671109682434L669.5572817225453,332.20712397640546L669.2003359120354,327.1537351710267L667.0536903891457,325.2348838736825L671.5873023002179,320.3037223572261L670.5981175584658,313.46323618729105L675.2241460571466,310.36532105748734L674.5759739708437,304.14545811878486L678.2741839956354,297.0691166344278L680.720463089949,300.7841191208179L684.5171110880173,309.00728064821317L689.5370300875861,321.58138051689946L689.9395664648031,329.9013396360891L688.2277750798318,333.9113458229264L688.691130512689,336.60519239553696L684.4263703501638,339.0719278263344L681.4035830066007,347.5802519778099L678.7324471683436,354.7633905161896L675.647968683196,360.6878730292649L676.5256166005765,368.79378938046045L679.3097575941194,367.2700265359348L679.1878468287878,362.369787100046L683.666698401307,354.28079038593074L687.8661642604105,360.2156330100204L694.0597303054352,356.51828923762935L698.7364761454272,345.6971321351615L695.6437897126406,342.7561034450234L701.8454932875,339.94084327293854L706.3400449882081,338.6905319507686L706.729452092768,342.83531959039783L711.3111434803567,343.07088262501964L714.7007258914518,339.900240456143L723.7888152520319,340.3765246684561L733.4928059962871,338.59583520521926L744.186078165264,327.89513847404663L758.6464989255013,315.70383724432224L753.4520918107804,314.11243141842766L752.2141819965273,310.1008911002732L748.924362813939,308.3728178918948L746.3146550177236,311.05634933824433L742.5374328697638,310.39062493103404L737.7763148068768,303.38259054643834L737.9063763501407,298.0618463538552L741.1692173324587,292.08135727683987L742.1040412284376,284.6447559666875L744.6677083638839,274.5470587027713L752.1954892238413,265.7213575736124L754.1907059506057,261.40367557210914L761.6019267309882,254.53637707631495L769.4559496033246,247.96634199514867L773.4048239850035,244.59982865654274L780.8258065721881,242.1938996994999L783.8687293840304,242.8239870649579L785.9944880421218,246.84071906810937L794.0134074624926,243.8690431108251L795.375520722629,241.94641526680923L795.7072086941413,243.3537246862923L794.6734584237472,246.6624658487177L792.2163021439551,246.04208324674664L789.250764973432,253.59858530177712L788.8208082613702,259.3866143985199L784.2627315921142,260.5951018558695L779.1558117504533,258.04240346923063L774.5851289479664,263.61150633261923L771.6144280802185,270.3421017471902L769.4265741370319,272.2790324930629L766.0119760435725,277.53558870340066L773.3236746125593,277.1675117898561L777.5399208503289,275.5456888809674L783.8690627173935,277.22217040328417L783.9962069329204,283.48311678675145L787.2574228197137,289.2139724941128L793.4183023561334,293.39038559784024L792.7609220387203,299.55372317467766L792.8055941404225,303.5657635414939L793.189776134227,306.5142236985132L793.1911646825323,313.0325091196079L795.414255881846,316.3244219097437L799.6368748420736,319.9195589614444L803.9986618599033,321.7307780453734L808.4940730821315,322.67312916076503L812.4795377269187,321.3157115023397L811.2472800053497,319.13345362207775L812.7385781370666,316.14656762908317L815.406279304536,315.32109475204004L821.532831344752,311.32653554558453L822.664934613189,308.96284626208944L829.336975748224,308.34610401101327L832.2652399455176,312.7764625272097L836.4544438273531,314.7814440407275L836.9606006005439,317.5617337737789L838.5507681653588,319.3965422997383L845.5994783970054,319.2038489920574L850.2722730216717,321.3249241016264L853.9946896783789,322.4453590570928L857.1866236560518,326.24806950923676L860.011480292387,328.4764489966229L859.6809244388105,332.2266507080874L860.7172940081957,336.7652117988864L862.82148233986,339.79701927289216L866.8656362460304,342.465676975004L870.0527891304497,344.1413162473924L871.956736534429,349.46707752248335L869.391083244347,353.0071374709332L871.1480173120489,356.9476230654138L872.8352929592861,359.84874215373554L873.659780905896,364.2866160739427L880.389418964278,363.17019436188286L882.0466524788168,359.9504577088626L887.248636840775,360.21901070030503L889.3604114856973,365.1837228696371L891.3842248997838,368.18763311504847L890.7360857100276,371.6898790763634L892.8042652725651,374.734304987919L893.1505472939396,378.18024228372315L898.3132087290384,381.0794949716425L905.8266445774183,384.31673663589265L908.570854928486,387.00773556319336L909.7026936995264,387.9823830718738L907.7557343983469,391.2935245435476L910.558254826236,394.93621681003674L909.1548899564971,397.26132327664175L909.4616042812025,399.91562774842544L907.4481815923067,402.76971198059186L907.4772040566417,404.94720798922344L910.7936424364336,408.60341811191734L910.0109287170847,414.1801201342753L913.2939957279693,414.6787124978291L903.8057431786881,426.7123603280018L901.5031388562423,431.9017385830063L899.5905551389777,431.4755802563172L906.9524297668647,436.89871520128025L908.233122278305,439.67267507813926L905.4757781551267,440.3905323940812L905.0119158052405,444.6346156799036L907.1550387411753,447.3101272648316L902.3052164792837,449.8375315041946L902.7306202696136,455.3088075439649L905.526273666295,457.3354734324437L909.1615025856494,464.26433696501635L910.7545739629602,465.365300071795L914.6505385108005,476.26468865975454L916.6406226154578,477.405814626331L919.8064852367776,474.6206364286477L921.6642900364628,477.31063798656595L922.9695962766117,476.53109287461723L925.9367848119632,479.2318545316152L928.6679530324219,473.50129149890375L931.3046910323228,473.9092091232315L931.7198810512328,478.52851491632197L933.4334557456139,479.2502197810238L931.264165403132,483.7216271217511L931.9242456339293,488.87924965311845L934.4029820631977,492.23011874942097L932.6370574322121,496.2985708709899L929.4389720443971,503.6519404742053L929.6666956361887,508.6777874550991L935.3597855709783,515.5430510255126L939.2391147281288,515.9458336078739L936.1439349737847,519.4136583445819L941.8532566658328,522.27286628159L942.9282943451236,521.3139158035252L946.8528643742919,523.4428830751602L950.5460173311315,520.4976075090977L950.3993321044911,517.9426797372168L953.9219954511454,515.6600682017297L956.6678226082556,516.055716190674L957.5185528526993,514.2293666761855L960.6463874968562,515.7984288388825L961.4785344151155,519.3766870827644L966.8273272179474,523.2179115812303L971.9104771449195,519.8856340463565L975.51424744207,520.1897623449496L981.6749050357648,515.9858700044288L983.7720354126408,518.3844545264855L985.1954002753655,518.9525091843134L984.8125040187259,520.8086944369196L981.5577105612131,523.4810575783771L981.3496161242701,524.6112242554394L980.0610053706098,526.9895277595198L977.8353717788867,528.196063222408L976.6600679441419,531.6661806135309L977.4113067061584,534.0930655769832L976.3253409952013,534.7432153190085L973.5167571695205,539.9114012230499L972.2019697847518,545.5662537611711L970.9402293473736,548.683858621889L971.557577012426,549.3092462979297L966.4978902961814,553.668703651438L963.908422324597,557.8112620948135L960.2532316766371,560.6308683546869L959.7828320268857,557.7915217168573L955.7824736876838,554.0910612177759L953.3888295386951,555.7839893073151L951.9081181242896,550.0962818871496L950.7400934324146,550.0805255960036L951.1688679347283,553.4583593433855L948.7861501320443,552.992346155117L947.5959745309963,550.9850696667579L947.6591360899174,547.462169310535L945.9170353466361,546.6006144576714L942.9344536805812,547.1326575726462L940.2518419901149,545.2687067930106L938.7063149391176,545.2034462923735L936.297166468418,550.0365507480246L936.0957578881046,552.0231239504081L933.2730732388859,553.7105058329932L933.6009456399436,556.4093126209184L930.9885974474734,560.3442250973901L929.9354543532179,560.1377493196575L927.3977288116524,560.8824216888636L926.5572982898884,563.4573137911959L924.8800182314421,563.3424533455611L924.0092224068138,562.2841408849731L920.4839308128746,563.7184108686123L920.2557820945859,567.238788548037L919.7392229541761,568.1024023519994L920.678965764683,569.2079890978841L920.15942939415,570.4490531786096L916.6413600243706,570.2740665274334L914.6180016362139,570.5929695335319L914.2964893370838,569.8939992383059L915.1742552682654,567.3195635138877L914.3492278506202,565.7781869131171L912.6935582920689,566.3222289388771L911.1833205291575,568.2097960389957L910.294069650189,567.7315366259804L908.9821263411383,568.8095065034634L905.0444955131981,569.7160115972296L903.8144892065333,568.6551622521667L901.265632042353,568.2661555643093L899.0827919428777,570.7396310504228L899.242719716411,572.5360403212571L897.790963367963,572.5376848427219L895.4692703687872,575.1415840327951L892.1537916072605,575.0361428858049L889.5625551522124,574.3507850702903L887.845713341896,575.3214194173047L886.6046836753062,573.5198377731166L881.494445092085,572.539968868138L879.2285807157547,569.5505916108318L878.259049877747,569.6256637758395L876.4184224889689,565.7134737629153L873.0641723714083,567.511725366408L868.3978391509856,559.8535781806157L866.1534815185161,556.7101969254562L863.7709933481812,554.9118425934413L859.1301598642444,557.1493843113701L856.1324995164714,555.1128508251026L851.6811526001169,555.7459874120207L847.8207874621688,552.719252389831L841.203243564569,553.0028914952433L838.083519546444,549.7511503308622L833.648847218326,551.298843645132L830.2531890782244,549.6293837873258L830.3609867879142,548.0418066932052L829.4878565789529,544.3062874504704L828.3055010706101,541.8482719422487L832.3582632767809,539.9179029842695L834.9559153285105,535.269081913742L842.4146455836462,529.3863417808953L845.1225919795183,528.3282358908903L848.6239319823208,528.7755117273982L850.9361266707256,531.5782932732109L851.6620532892316,535.2715294900984L845.4241909480298,543.529440103671L845.6107747796469,545.2556845793789L850.3736110141053,543.0056043477939L852.8290400007573,543.5107455757887L858.0789698897556,544.7510517180965L860.405234888301,542.2377792566574L862.2329476923521,540.7616956868844L859.7609410373343,539.9402918686405L857.1973538832794,540.7819270350567L855.5698160131878,538.8963423314098L859.8724058843765,534.2192211821327L858.9992481622422,532.0649984921861L854.8731648592934,532.8701482796787L850.6406090535911,527.0324356662139L851.1950933710764,525.1907857770965L853.2414782907397,523.4459991588195L849.796511334085,521.8187783247356L846.4798582239357,523.1346882137193L843.4941697735811,521.742501994798L840.0080130768888,522.78406059269L842.3112907188399,517.5622385144617L845.3331583727354,516.6720862540894L845.7731904698512,519.2458283862178L848.7002194176121,519.5307024226015L850.6416749599674,518.0572159680307L849.7340752691049,514.7725593378325L846.455574448878,514.0712878803746L844.0672772811727,509.8224636442714L839.5064349376798,503.1145141667974L839.7368568215062,501.74345768427224L843.0085301935521,503.4896050322902L843.4763226118017,501.01287622567867L841.615757514167,499.78771362945866L841.1561253150331,496.2155325606601L838.708280174015,493.57866094815586L841.6175707331297,491.06891754924635L837.8619857606876,489.3904170010393L835.1594626191903,491.73390775329995L833.2636835064731,491.07468356807817L833.9532080384438,485.536474888254L835.09195079811,482.66925777100045L839.1889029074094,474.60973514312855L836.2077095471087,474.09062396194514L834.101366046692,476.65583698145986L833.0314922900936,477.0172948373523L833.0564051655085,479.33373595660146L830.5284840130876,479.3048595529766L826.8452002443789,481.2163528703768L825.2186050152366,481.68312405582174L819.9007886496622,479.9368490167221L815.0127388074071,480.26862981905794L813.6916962140524,479.45488510314703L813.7507245348962,475.13303251254024L816.3996201848466,473.8899859221853L820.8936590725948,473.93761417361395L822.0677632417372,472.44541656070555L825.3357921238143,470.6962770907197L832.1976322923938,468.6769291525444L834.4813845981811,465.5994509854008L838.1251485004932,465.1550736803555L846.3733105671497,466.5744100802754L846.3998924045868,464.00732135040073L844.350262491137,463.8479793043105L842.2320834055905,462.16259280321674L839.6749744898593,462.58116748975937L836.6820791883861,461.8941996136227L834.3791686393549,464.00694350833936L830.8151670598537,464.4485525639897L831.2160637451686,466.53023415424394L828.626093173331,467.9236120183234L823.2066472663853,468.4783437635305L820.0211770599537,472.023387779368L815.639510617226,470.5482429414866L812.3778654134206,472.26504049514074L811.9161226956905,471.6136453217738L814.2939079585084,469.7312285114783L819.2349106964962,468.40552853036337L819.4304723941631,466.42597597172875L816.2436976882884,468.5454990302319L813.2872748844939,466.9265174165946L811.6172009332353,464.04729790400876L812.9467610884903,460.0410547269215L809.7782581506877,463.32173058834854L804.8080566836301,465.99360707875945L802.7101993879455,464.2485668775474L801.2003169224581,461.0665149471722L798.8919261020867,458.8128535643111L797.2388583117305,461.28327711123086L793.5118214780956,461.76531534773034L792.5149103440161,460.6329842258684L788.9563480130788,460.0340294130271L786.2471370421035,457.78604274174677L784.8945838704537,458.3646299133911L782.3758527036413,456.17563859337764L782.5001044128222,454.6405532058196L778.5967563029238,454.5384919036862L777.0370728822978,452.90797124726646L775.2441961740819,454.3302185417521L772.9137109103956,455.2694053391865L769.4601263125627,455.1663439016796L768.9889401625993,452.62418558031237L771.04727472015,452.5695779050735L769.4673769601661,450.2639847402475L770.7458484023862,448.0393052500059L769.1388748106621,448.38588898302237L766.195874961873,446.3862482303767L765.199977001487,442.77612688020645L765.289468968365,440.53056657935434L766.9437568970634,438.3135182448324L769.0085074238809,437.77276457603557L773.6540867654123,437.2476670922679L775.4495234212901,436.51895515412434L774.3649703801331,434.8736042750536L773.26345225623,432.5906926204999L771.5931679693326,432.79448285500575L772.6994267415637,429.46999257253145L771.4184191900861,430.3742183131901L768.9936449087451,429.8871087074126L765.0809233602365,426.94480998339674L765.8380877368371,424.5614092470726L760.1869883070706,421.33643614331936L758.6593516892235,425.046634907959L755.9630193613102,423.1695038437525L753.6989852639487,422.44143751081685L752.0993273026178,419.0876939161031L752.289506206251,415.5636342349178L753.835682128922,413.69687193832203L752.8762227915328,409.0554251311582L750.6861103313475,406.3416784467138L747.8673452358646,411.4519564745611L745.6990920848001,408.57921532862537L742.5709130536238,409.53395756188695L739.5659598531126,407.4897616825019L738.1337931513447,408.79325530881243L735.4539105783111,407.8889756745051L736.269956099426,412.87786847915686L733.9899899374517,415.02799157548134L719.4409319381023,411.89230385270145L717.6647342588004,408.8904700803339L712.6645916424305,405.505401001457L705.9322271792977,407.856997971543L702.2988261946364,407.90363625042175L700.271505004618,406.1753433434129L699.4303713954613,402.38767638659954L696.7127467011624,401.5974956929748L694.6691184292118,403.3984772966026L691.6350477504388,404.70388386315244L687.9806396165172,405.0182537485714L684.9337808028966,406.98898238339086L679.8022320357186,404.0883490832954L678.4850966754937,406.7193493738589L681.4701871561214,409.0882029956805L681.7541766571433,411.53897448720255L675.9772555877406,413.07767352366955L672.8557014669842,415.33038518517833L667.0338470757715,416.25242999659594ZM671.6031866931747,426.76110224684766L671.580642670355,427.13457368416044L670.4189195478787,427.8968984844074L667.6283499078049,428.28295948529603L667.243791982743,427.6138924865133L667.8794715738939,425.52480807675676L669.4376363520274,423.854822032237L670.7890827461774,422.5109530699212L672.042408231315,423.72812065116545ZM954.2627561900907,572.1278049204655L953.1199966321874,570.787003370518L954.7660690951603,568.46095978742L955.1807165904223,567.287409070387L956.3404132307564,566.9395815676024L956.6290459243149,566.4341801261911L957.1123386375348,566.5189260830309L958.6932156656238,564.8379295751823L959.0125530961257,560.9968360069737L960.7418848678744,561.9588456004883L961.024383143279,566.3504137317459L963.2287021264474,571.9968118560051L961.7451002303135,574.0138159843447L959.3804892021448,572.7034851418738L957.0077562713003,576.4967172315913L956.0818453045384,575.594170206623L954.949839040168,571.7035900204527Z"
						class="svg-path"
						fill="transparent"
						stroke="hotpink"
						strokeWidth="1.5"
					/>
				</g>
			</svg>
		