<svg width="1406" height="955" viewBox="0 0 960 600" id="svg" viewbox="0 0 1406 955">
			<g class="countries">
				<path d="M508.0895511946561,115.11976485848822L503.7957963849555,135.51901035302745L500.8694967857892,154.81140000757796L500.17583999826365,160.79283970970732L498.6925494837761,178.56350990042148L498.08570136012895,194.3544861632866L498.1173472655365,209.17386886359043L498.67991762248846,223.1372278217547L499.82260144639,237.69099767705623L501.42925672907614,251.3986499047755L502.5785480248701,259.1945771316749L504.85071479086497,258.9826420831327L505.0306068876274,260.17971145247964L502.092719923976,261.331232418092L501.29148748542156,262.69956468143937L501.4442438412589,265.25620459277286L501.26006845417623,269.061789110553L500.34443226086785,272.85446785399927L501.64177269764457,275.60676670415023L501.224407046303,280.13932002134004L501.58249458870284,281.2182889793907L503.77281841005845,283.88649115863745L502.77700628021927,287.4384857633163L501.71822736667167,291.13973348996313L500.94615422610354,294.2610372260152L500.15999208435636,297.13950814695124L499.0140556489796,297.8770916161359L498.81732130230654,298.69614313004234L498.28259492004315,298.74243717686L498.45926173679004,299.5680998594541L499.057284299815,300.0020442339729L498.06207981751066,300.5807820027304L497.51411070370443,301.39423611875037L497.8196962406415,302.298826735586L497.48606992756174,302.9158850135133L496.55911015646603,302.85636706957587L495.6294756950331,306.848546954301L491.8677114488077,309.0189198032479L488.3665146323015,311.0408975808741L485.4670222499436,311.17906098211256L482.4822481767602,310.70250557725507L480.74077382590843,310.636331671751L480.23371199943296,310.7179314496098L479.76938788715495,311.3199010157765L479.6524257939994,312.7142392024201L479.99668926108313,313.50285855774655L483.7271207341296,316.1201763296167L485.78836737022766,319.00594383616107L489.55008124693404,321.9768830533669L489.9139724349303,321.81611244327473L491.0617917593323,321.05943220511296L491.6843748276391,320.2837739126676L492.8943086338128,321.2763061758186L494.13069769824233,324.1197194940295L495.3277713393186,326.82131901737444L497.3094345816821,327.04908220083405L497.7310255030678,327.23026761983635L501.92024988097415,329.0202531940379L503.15838235494306,329.9116366325129L505.0900422631734,334.0349471272357L507.3789438693544,338.9684548149489L508.39337467380744,338.8401435693583L508.999559269895,339.6005785775769L510.1428620596198,340.4487960109169L512.2677926010439,340.59404826595846L515.5162610276261,339.98784139052725L519.2456195685521,340.6177788056186L518.7239755819173,341.96594949693247L520.0895337273564,343.31829914067566L519.5837483412103,344.9940239215807L514.604721034678,347.4310316917035L513.4321751019139,350.0751935343177L512.5172737504604,351.121970891782L509.3743565874736,349.28811159509536L506.77032262786906,347.23895030674674L504.2789071645347,345.08340201166675L501.3998080272389,344.7574746154494L500.4214113029849,344.7768402262816L498.42210113494684,345.6901786661768L497.057938185017,347.6315504383158L497.49062563464634,348.7479502064304L498.6807773977708,347.74671807217953L498.25494062758355,348.9490949652448L497.13509198895815,349.3069894655856L495.58621028720825,347.80326584263497L495.04733660985016,346.4855221518444L493.37526798907226,344.89098050260657L492.5635420920943,343.82273470403743L491.49361917832607,342.25523002827276L489.2547352337319,340.5212193292002L492.0949498516144,344.1945571333795L491.7976015434522,345.35399213830385L488.6578601622848,342.10087884902066L487.7689341982348,340.4053449669675L488.2310418959726,340.16468568796006L486.8219374145484,339.8783002045116L487.04432364413344,340.784609315837L484.10266475385976,341.5722955651554L480.2718825522152,341.0279462649412L481.07818459805696,340.3307856920703L480.948079691666,339.61467581042706L481.38449453157534,338.20449707863423L479.6776115532647,339.7707677290841L479.4086793482938,340.83830187673885L478.0971246401821,341.68679448846774L476.16380940503916,341.5562771891965L472.40084397229487,341.50470680145037L472.41444598698524,341.2261834895762L475.3378725874379,340.67590602088495L475.92328851621687,338.48197935451446L478.80539726393954,336.5404721148269L476.93277667894966,336.8708121747334L474.8994702306311,338.6370508706452L474.4804262683029,336.4447385945222L474.3654268771932,339.0635992448612L470.9733888751284,341.0866794183387L471.1822694197828,342.05746274112073L470.1396112419364,343.06135777286784L466.82585614258943,345.54038076380715L463.20990153582864,345.32665151185154L460.401943945429,342.9231909726483L457.1812385715504,342.29465091648126L456.0376628193174,340.97355195636175L453.8688275616628,340.26058501284706L452.40287729774457,340.5711675641454L448.0794423060813,338.66629062679516L445.35449149667306,337.9710097300815L442.3746944811805,337.88259491684363L439.63583758880804,339.021382041827L437.5507068752213,341.1434840478165L435.23772307533955,344.0670193861248L433.81312684434675,347.0454585012126L432.3774905634265,348.0334919187819L429.5583502350954,352.04058334993056L427.2792990150366,353.5166067340157L425.99510110263685,354.2896394930481L423.5193520171518,354.9919052872794L422.5098678774688,354.46012324515516L421.7824011397546,352.75455773599117L422.9195085419458,351.2800816157778L422.83757212955,349.5776167740389L424.4698969353425,346.00385575221316L426.0731869271892,342.7988437147609L427.1118670860419,341.4411962140311L429.7609533406047,340.57947853588894L431.0950118053007,338.41891539765834L432.39946606700244,334.09317681366963L432.25466216030054,332.6115008840204L428.6113842613212,330.53594094389405L428.4380601129646,329.8482218871329L429.0405841916644,327.21165943634986L428.72203743994976,324.6822857929802L425.89894163691355,321.29167861450617L424.51884660985684,318.23030766490217L422.7377805187611,315.88177273320656L421.20956966916776,314.85002514943324L420.5614432332317,316.1047967514336L419.062890043675,317.0769181780048L418.7047050094999,318.1537489273555L417.77770596308636,317.9204482622626L417.60942459279875,316.33833952240053L416.0020453449396,315.5253512994866L414.561959407737,313.0463694458358L414.99272916907637,309.3119737297486L412.5099118543744,306.57111960406485L411.82851080062994,303.49222228436014L410.16280692938085,301.5518895298004L407.24562948283153,299.13836108099963L402.1565475255446,297.9437371121179L398.0672581435659,295.6835041236478L394.6827051889181,294.9933354610763L392.33412958814006,295.50155678722285L389.6222348516428,297.4578759882802L387.8150203775013,298.9819924866782L387.028285516102,300.54131575623205L385.9526238710901,299.39668810483874L384.9029288996177,296.24907030214706L384.01282315681914,292.53935827279713L385.1257540674152,290.1144416074576L387.42393943283685,287.24519469107145L388.31575266630074,283.4078074857971L389.90703483595314,280.2897648018745L391.5805560501517,276.3324539005441L391.5715093216991,272.4940561023736L389.3142469395274,269.2864827884788L384.0680434048418,269.3179222806491L383.0944235455132,265.11139236802563L383.01171800637013,261.94862354641594L384.9516350089657,259.1262285032284L386.5791982567425,256.10806745074404L387.1274662217325,252.28494412611573L387.2719941145453,248.9147391815199L388.03364719070447,246.234675125224L383.16135142570664,238.51192537172932L381.0601857936395,239.8627612607186L378.71604983508473,236.27096097922433L372.5071027856822,227.12678287340427L369.0063106490934,213.17359710266373L366.92073077810124,203.5994965650894L368.41180166668266,203.16493992662794L363.2634104002387,196.8716349357872L358.5010608005482,190.87966563549844L361.3082694905761,187.79720111784252L362.82158381559174,181.46515003213864L361.92728198843776,178.12857895136426L363.5873126305334,176.15348444921506L361.75775036285336,172.40871589249178L362.36229671877885,168.90785789400508L359.2995544797595,162.55991861085676L359.5327273350308,160.12960644480995L363.4136666148939,156.74451445684736L368.0459690328418,145.10734439948368L377.82721980166957,132.21610093587964L380.0654139171175,131.4894798896185L381.7749985295054,126.24115123967437L387.7947779091143,116.30841547642319L396.5136963935223,111.59393166211925L401.1724498930362,104.70284045682371L411.6733763535681,103.79869927415587L422.21338865150966,101.02079142912595L431.31316776622015,96.65858245744954L443.95988448457183,98.60652495523505L455.5731235594596,99.30377272249183L467.0731123288756,100.34009716734619L484.3675217826727,100.16512846588307L495.50283713369157,99.11723353626513L501.91193589023277,97.94918835108257L504.10031194152134,99.73762813322344L497.4348077895263,110.50176987863307L485.6744782157017,113.13679325412608L488.3895317130215,115.51093238284676L498.2338326062736,115.60377809616176ZM1194.6791914515065,201.96870046729327L1196.1102770218176,202.1764243534314L1197.628608139972,202.64828806603703L1200.1836794134783,204.6237323300934L1200.0723624670798,205.08538841353948L1197.9733499122096,207.48864386443722L1196.206570656011,209.2223237994051L1195.7111086424336,210.78401246242657L1193.735151346592,210.38704187461462L1193.2470431950069,208.33234755279767L1191.3874744410514,206.1980394795143L1191.3400229249519,205.3604430272856L1192.0964618347134,203.78581917931194L1191.0971690960787,202.5738557523888L1191.0945021113994,201.8486823445756L1191.859139684425,201.70519551752727ZM1188.9947639063973,198.54236224341338L1188.6261009608654,199.72318637719127L1186.6824176126927,201.0837519285388L1184.8780116484859,200.0429045404141L1183.9039095571031,199.70184972964654L1183.7454834688656,199.32061223267976L1184.1952301231506,198.3864812080334L1186.6632827563649,198.27609404489766ZM1182.7593393750358,197.6341034524604L1182.8438022544638,198.50090452546686L1179.2441498180774,199.89631259029773L1179.328040841715,198.80711265068402ZM1172.5594506553532,197.62645163292285L1173.4963294337394,197.79977148891265L1176.4074009748624,199.20109176068223L1176.1105322544818,199.78881406636805L1175.6444565782604,200.00072902966724L1173.442530026174,200.71437633983857L1171.758123590155,199.53632791761504L1171.408561458904,199.39796449040597ZM1162.31144451333,198.39809866617577L1163.3673913401815,199.86873549269563L1162.8447005009216,201.0667138609665L1160.190359450523,200.92344761062816L1160.155568834487,200.32112567496893L1160.8900806489257,198.9934853455366ZM800.2570457072131,176.66661173706206L798.5583259717353,173.63593281237587L800.7982655442286,170.94175271007134L803.6466995728451,172.246239340954L804.293336245314,175.41637578721094L804.1936361006142,178.90095673584125ZM760.824055448875,116.73789169388442L757.4930102129653,114.28786725893485L756.4134197259398,109.82615092451465L764.0633894933943,106.7915509119203L772.2510677240848,105.8226455893979L773.6428994653652,110.17635197982702L771.6556343189367,115.47796545621935L764.6727239631365,116.51286950862976ZM695.5011109764073,213.25883228831208L692.9972798623743,184.98388922276013L686.9927194606546,131.9427217235464L681.6092151992848,132.36725172175358L675.9053273564281,130.51247685947163L671.0768808801369,126.5820833379579L664.08930989475,120.98063223676928L660.7501610119043,128.665271521293L656.7808309654789,133.86585349118144L652.0973080439298,129.6822321574968L646.7053343589367,127.11089226724107L639.6086276498364,125.07604886241205L632.3840486501402,119.77911969997751L619.7192608987241,112.15739799003023L606.0593312845831,113.3672963431261L600.9809056279273,107.70020829528261L599.7156832987887,100.61603534639431L605.8394452363523,101.61225367074235L613.3394421188399,100.57139054822699L621.4225905065136,108.30150593880478L633.9160561247331,112.02973650438463L642.1002226560142,120.09831090710065L647.5987004210069,118.38759012957655L656.7120567078148,114.87570904693763L664.7519587800875,115.75714678322106L679.3820320083798,124.52503800947107L685.1362027286334,125.6159263498368L695.2851677717135,128.58955947395435L702.7810044557582,127.35930570291771L713.2806444507361,132.89279680968338L718.9228083666067,138.10255853458176L724.7363442494307,136.71105345495306L725.1212213692104,129.12056781427088L728.142773526621,129.09481196866216L734.8756915336764,128.214006937117L740.768432090746,125.94298645174018L747.3022704663205,125.8011945011458L745.9190614527239,132.01734312772015L740.4453035699215,141.1795609629445L734.3964113314632,142.68189809153228L735.0892823644127,145.51445337191223L742.6779467536619,141.9123718248814L748.3302775285438,136.59405361372274L758.4547321453247,132.5796500115428L757.0041550534852,126.05577782542423L765.4151226996996,121.3391006089526L773.5553450121859,120.22493829452486L780.6701143876669,120.58171113427147L784.8029634223249,117.36900106861572L796.3164105873337,118.60815611776445L801.481683953015,115.8678328292321L810.4496269202461,117.45768698787231L812.941227435602,121.55941616810782L819.2242251217075,123.6937469450292L826.3924839677661,126.47431027411733L832.3904635615706,128.60809661069567L840.7590185968245,135.7861919292385L839.8684961827332,137.61098846634638L832.0297777141386,134.58179743424807L825.8859250381981,131.67148354047754L817.312280027178,130.35858393058703L811.0778744747365,125.50530220260117L805.6015899943598,126.50773309651368L794.9743594368256,125.7677755886628L792.5633355019522,126.6284251865095L786.5456463265846,126.98843120111144L780.8686351430907,133.05604300210132L775.135562536556,136.58391344723486L782.0261375020076,137.62765477304964L782.4494564817993,140.02359504989528L787.0358672652321,138.81119472708025L786.5433145048147,145.00496883419817L790.0213832959784,143.1313449479726L788.2289936184126,148.22627121483117L794.7003267592893,148.64722303371713L796.9927213525511,150.78102678744153L793.461684766999,155.34693138429657L790.5202426592199,157.30534697984507L790.4198071598413,161.73640484863836L796.1233891751081,164.64056995352576L795.7580595346722,170.24148469674577L796.2355296052093,173.91063555410653L792.7900656468257,177.26792705990295L792.4369501168364,182.11583471810133L787.9608848574059,184.39494627434885L782.5217799140514,185.59217979176526L778.8099497338948,187.80266737801333L776.2009577684036,186.39306814206446L775.0449764129776,183.76856081844096L770.1832847987272,185.1198483615272L768.449667340803,182.9767232187702L764.638750594952,183.6509850623042L763.1767450937241,187.10274569125073L764.070822379423,189.42576451889988L760.1704328106061,190.69599081465424L762.0033118060525,191.68439798006068L766.0034573031793,192.30595010479522L767.8000616107911,191.4770434699932L768.9667606491918,194.44797331139432L773.197031689167,196.68568982952195L775.7440739853112,201.19550911783818L774.8103096598757,204.3426924332802L774.8444817551598,210.07831337829327L769.6418336049004,209.69243704887424L762.3081622530494,208.4897923558264L760.3316212407678,207.10187624291274L762.8181796021686,204.27922811336248L757.2645523125603,200.9288589369445L756.8619586681889,206.24596648606246L758.2882906099488,210.48097512537305L757.9009144952736,214.58616215281603L758.2690237869622,218.39546734934822L759.7727218111107,222.27325733776468L756.5859356437097,224.33573915297762L752.8812072184941,222.09568190812342L748.65756767927,223.08604709044945L746.4843586718813,225.6268322496628L742.8973163377716,227.36553960023664L740.5582843256899,226.97647764667627L735.5493700521133,227.96896108168062L733.8424085561,226.74045115049677L729.5666642648746,228.84912426637683L726.9022072567336,226.58635227708513L726.1736736052916,223.1974780613648L724.9118343260076,224.11118783630874L721.3429022651236,222.83440914487144L721.8602182115926,221.30981670001557L718.602706247233,219.4832729771877L716.1967353579186,219.69741887373084L711.5397349292247,216.94057825099992L707.0466040592385,215.972555668702L705.2622519756624,214.8880691982012L702.0432195351107,216.00886615215592L698.3160221768848,214.09009746811017ZM792.4322423709366,208.87498061402306L792.2870554586831,206.41294098460946L790.3746098371676,205.3969217446744L790.0717426966612,201.9887275797858L788.5458401775552,198.89255396917991L789.3226515109562,198.51082516270014L792.3084893655163,199.354126641218L792.7649639919484,202.39288276596182L792.5972134885174,204.28458940687824L794.7353524456698,206.25492049954596L794.7365143988045,207.3201409291147Z" class="svg-path" fill="transparent" stroke="hotpink" strokewidth="1.5"></path>
			</g>
		</svg>